<?xml version="1.0" encoding="utf-8"?>
<!-- Generator: Adobe Illustrator 15.0.0, SVG Export Plug-In . SVG Version: 6.00 Build 0)  -->
<!DOCTYPE svg PUBLIC "-//W3C//DTD SVG 1.1//EN" "http://www.w3.org/Graphics/SVG/1.1/DTD/svg11.dtd">
<svg version="1.1" xmlns="http://www.w3.org/2000/svg" xmlns:xlink="http://www.w3.org/1999/xlink" x="0px" y="0px" width="128px"
	 height="128px" viewBox="0 0 128 128" enable-background="new 0 0 128 128" xml:space="preserve">
<g id="white" display="none">
</g>
<g id="color" display="none">
	<rect display="inline" fill="#FFB600" width="128" height="128"/>
</g>
<g id="Layer_2">
	<path id="C" opacity="0.5" d="M103.021,80.189c-4.335,7.306-11.019,12.807-19.15,15.674c-4.637,1.636-9.079,2.379-13.26,2.379
		c-16.123,0-28.373-11.05-33.147-24.59c-3.231-9.165-2.701-19.04,1.495-27.806c4.196-8.766,11.554-15.373,20.719-18.604
		c7.215-2.545,14.883-2.746,22.1-0.667l4.466-9.98c-12.467-5.578-26.375-6.005-39.164-1.203
		C20.488,25.385,6.981,55.148,16.971,81.742c4.839,12.882,14.406,23.107,26.937,28.795c6.796,3.084,14.021,4.632,21.268,4.632
		c6.115,0,12.245-1.103,18.141-3.318c13.122-4.929,23.447-14.715,29.074-27.556L103.021,80.189z"/>
	<path id="dot" d="M70.646,79.854c-10.007,0-18.148-8.141-18.148-18.146c0-10.007,8.141-18.147,18.148-18.147
		c10.006,0,18.146,8.141,18.146,18.147C88.792,71.714,80.651,79.854,70.646,79.854z"/>
</g>
</svg>
